<svg width="40" height="40" viewBox="0 0 40 40" fill="none" xmlns="http://www.w3.org/2000/svg">
<path d="M23.3334 3.33333H10.0001C9.11603 3.33333 8.26818 3.68452 7.64306 4.30964C7.01794 4.93476 6.66675 5.78261 6.66675 6.66666V33.3333C6.66675 34.2174 7.01794 35.0652 7.64306 35.6903C8.26818 36.3155 9.11603 36.6667 10.0001 36.6667H30.0001C30.8841 36.6667 31.732 36.3155 32.3571 35.6903C32.9822 35.0652 33.3334 34.2174 33.3334 33.3333V13.3333L23.3334 3.33333Z" stroke="#44494D" stroke-width="2" stroke-linecap="round" stroke-linejoin="round"/>
<path d="M23.3333 3.33333V13.3333H33.3333" stroke="#44494D" stroke-width="2" stroke-linecap="round" stroke-linejoin="round"/>
<path d="M26.6666 21.6667H13.3333" stroke="#44494D" stroke-width="2" stroke-linecap="round" stroke-linejoin="round"/>
<path d="M26.6666 28.3333H13.3333" stroke="#44494D" stroke-width="2" stroke-linecap="round" stroke-linejoin="round"/>
<path d="M16.6666 15H14.9999H13.3333" stroke="#44494D" stroke-width="2" stroke-linecap="round" stroke-linejoin="round"/>
</svg>
