<svg width="48" height="57" viewBox="0 0 48 57" fill="none" xmlns="http://www.w3.org/2000/svg">
<path d="M23.6047 0.5L47.2094 14.5137L35.407 21.5207L23.6047 28.5277L0 14.5138L11.8024 7.50692L23.6047 0.5Z" fill="#C4C4C4"/>
<path d="M23.6047 0.5L47.2094 14.5137L35.407 21.5207L23.6047 28.5277L0 14.5138L11.8024 7.50692L23.6047 0.5Z" fill="#DC8D16"/>
<path fill-rule="evenodd" clip-rule="evenodd" d="M38.3576 19.7689L14.7529 5.75519L11.8024 7.50692L8.85176 9.25865L32.4565 23.2724L35.407 21.5207L38.3576 19.7689Z" fill="#D0B48B"/>
<path fill-rule="evenodd" clip-rule="evenodd" d="M35.407 21.5207L36.1447 21.0828L12.54 7.06898L11.8024 7.50692L11.0647 7.94485L34.6694 21.9586L35.407 21.5207Z" fill="#E0CCAF"/>
<path d="M0 14.5139V42.4861L23.6047 56.4999V28.5277L0 14.5139Z" fill="#D08514"/>
<path d="M47.2094 14.5139V42.4861L23.6047 56.5V28.5279L35.4071 21.5209L47.2094 14.5139Z" fill="#B26B00"/>
<path fill-rule="evenodd" clip-rule="evenodd" d="M14.1708 32.2225C13.8067 31.7558 13.3117 31.4299 12.7504 31.2136C12.1917 30.9984 11.5885 30.8999 11.027 30.8664C10.4667 30.833 9.9559 30.8647 9.58488 30.9051C9.45401 30.9193 9.34085 30.9345 9.24943 30.9483C9.25489 31.094 9.26279 31.2757 9.27416 31.4861C9.3054 32.0645 9.36254 32.8561 9.46595 33.7109C9.56958 34.5675 9.71828 35.476 9.93002 36.2926C10.1433 37.1151 10.4109 37.807 10.7386 38.2666C11.5496 39.4041 12.4882 39.3486 13.7064 39.0501C13.8729 39.0093 14.0385 39.1807 14.0764 39.4329C14.1142 39.6851 14.01 39.9226 13.8436 39.9634C12.6303 40.2606 11.3967 40.4169 10.3315 38.9226C9.89908 38.3161 9.58595 37.4674 9.35555 36.5788C9.12362 35.6843 8.96581 34.711 8.85792 33.8192C8.74982 32.9255 8.69046 32.1019 8.65808 31.5022C8.64187 31.202 8.63236 30.957 8.6269 30.7863C8.62417 30.7009 8.62244 30.6341 8.6214 30.5881C8.62087 30.5651 8.62052 30.5474 8.62029 30.5352L8.62004 30.521L8.61998 30.5171L8.61996 30.5159L8.61996 30.5155C8.61996 30.5154 8.61995 30.5153 8.92893 30.5346L8.61995 30.5153C8.61672 30.2921 8.7206 30.1074 8.86682 30.0765L8.92893 30.5346C8.86682 30.0765 8.8669 30.0765 8.86699 30.0765L8.86725 30.0764L8.86802 30.0763L8.87058 30.0757L8.87974 30.0739C8.88762 30.0723 8.89902 30.07 8.91375 30.0672C8.94322 30.0616 8.98605 30.0539 9.04082 30.0448C9.15031 30.0267 9.30768 30.0034 9.5014 29.9823C9.88831 29.9403 10.4229 29.9068 11.0124 29.942C11.6006 29.9771 12.2515 30.0809 12.8683 30.3185C13.4825 30.5551 14.0844 30.9325 14.5553 31.5361C15.1746 32.3298 15.492 33.173 15.6135 34.0908C15.7316 34.9831 15.6591 35.9119 15.5504 36.8632C15.5219 37.1119 15.3624 37.2661 15.1941 37.2077C15.0258 37.1492 14.9125 36.9002 14.9409 36.6515C15.0487 35.7087 15.1014 34.9246 15.0074 34.2145C14.9168 33.5298 14.6846 32.8811 14.1708 32.2225ZM10.6197 32.7094C10.5622 32.4639 10.646 32.2076 10.8067 32.1371C10.9674 32.0665 11.1443 32.2084 11.2017 32.4539C11.4379 33.4635 12.0912 34.6314 12.9131 35.7628C12.997 35.8784 13.0823 35.993 13.1686 36.1065L13.1229 34.024C13.1173 33.7687 13.2511 33.568 13.4217 33.5758C13.5923 33.5837 13.7351 33.797 13.7407 34.0524L13.8032 36.9014C14.6071 37.8632 15.4174 38.6781 15.9719 39.1783C16.122 39.3138 16.178 39.5992 16.0968 39.8158C16.0157 40.0324 15.8282 40.0982 15.678 39.9627C15.0718 39.4158 14.1824 38.5179 13.3137 37.4617C13.0681 37.163 12.8235 36.8509 12.587 36.5298L10.7546 36.1262C10.5845 36.0887 10.4582 35.8535 10.4725 35.6008C10.4868 35.3481 10.6362 35.1736 10.8063 35.211L11.843 35.4394C11.29 34.5553 10.8323 33.6181 10.6197 32.7094Z" fill="#7D4B00"/>
</svg>
