<svg width="185" height="32" viewBox="0 0 185 32" fill="none" xmlns="http://www.w3.org/2000/svg">
<path fill-rule="evenodd" clip-rule="evenodd" d="M43.0354 16.3632C43.0354 14.6827 42.5939 13.401 41.711 12.518C40.828 11.6066 39.4608 11.1509 37.6095 11.1509C36.755 11.1509 35.8863 11.1651 35.0033 11.1936C34.1489 11.2221 33.3229 11.2648 32.5254 11.3218C31.7563 11.3502 31.0728 11.393 30.4746 11.4499V8.63018C31.1013 8.57321 31.7421 8.51625 32.3972 8.45928C33.0523 8.40232 33.7216 8.37383 34.4052 8.37383C35.1173 8.34535 35.8009 8.33111 36.456 8.33111C38.763 8.33111 40.6144 8.61593 42.01 9.18558C43.4341 9.75523 44.4738 10.6524 45.1289 11.8772C45.784 13.0734 46.1115 14.6685 46.1115 16.6622V31.1883H43.5481V26.6457C43.3534 27.2928 43.097 27.8813 42.7791 28.4112C42.0955 29.522 41.1698 30.3623 40.002 30.9319C38.8342 31.5016 37.4671 31.7864 35.9005 31.7864C34.3055 31.7864 32.8956 31.5016 31.6709 30.9319C30.4462 30.3623 29.492 29.5363 28.8084 28.4539C28.1533 27.3716 27.8258 26.0614 27.8258 24.5234C27.8258 23.0138 28.1676 21.7321 28.8511 20.6782C29.5632 19.6244 30.5743 18.8269 31.8845 18.2857C33.2232 17.7161 34.8325 17.4312 36.7123 17.4312H43.0354V16.3632ZM32.3545 21.1909C33.3229 20.308 34.7043 19.8665 36.4987 19.8665H43.0354V22.8572C42.9784 24.4806 42.6224 25.7624 41.9673 26.7023C41.3122 27.6137 40.5005 28.2688 39.5321 28.6676C38.5636 29.0378 37.5525 29.223 36.4987 29.223C34.7897 29.223 33.4368 28.81 32.4399 27.984C31.443 27.1295 30.9446 25.9902 30.9446 24.5661C30.9446 23.1705 31.4146 22.0454 32.3545 21.1909Z" fill="#769F56"/>
<path fill-rule="evenodd" clip-rule="evenodd" d="M11.5654 31.9146C9.91344 31.9146 8.40387 31.6155 7.03672 31.0174C5.69804 30.3908 4.53026 29.5363 3.53338 28.4539C2.56498 27.3431 1.81019 26.0899 1.26903 24.6943C0.756342 23.2701 0.5 21.7606 0.5 20.1656V19.5674C0.5 18.0294 0.756342 16.5625 1.26903 15.1669C1.78171 13.7428 2.50801 12.4895 3.44793 11.4072C4.41633 10.2964 5.56987 9.42768 6.90855 8.80107C8.2757 8.14597 9.79951 7.81843 11.48 7.81843C13.3883 7.81843 15.0688 8.23142 16.5214 9.05741C17.974 9.8834 19.1418 11.0797 20.0247 12.6462V0H23.229V31.1883H20.6656V26.2049C20.5236 26.5254 20.3669 26.8336 20.1956 27.1295C19.2842 28.7245 18.0737 29.9208 16.5641 30.7183C15.083 31.5158 13.4168 31.9146 11.5654 31.9146ZM16.1369 28.0694C14.9121 28.753 13.5307 29.0948 11.9927 29.0948C10.3407 29.0948 8.88808 28.7103 7.63485 27.9413C6.38162 27.1438 5.41322 26.0472 4.72964 24.6515C4.04606 23.2559 3.70427 21.6609 3.70427 19.8665C3.70427 18.1291 4.03182 16.5625 4.68692 15.1669C5.3705 13.7713 6.32466 12.6747 7.5494 11.8772C8.80263 11.0512 10.2695 10.6382 11.9499 10.6382C13.5165 10.6382 14.9121 10.98 16.1369 11.6636C17.3901 12.3471 18.3727 13.3013 19.0848 14.526C19.7968 15.7223 20.1529 17.1179 20.1529 18.713V20.7637C20.1529 22.4157 19.7968 23.8825 19.0848 25.1642C18.3727 26.4175 17.3901 27.3859 16.1369 28.0694Z" fill="#769F56"/>
<path d="M94.4476 31.1883V7.98935H98.9763V16.705H98.8908C98.8908 14.4833 99.1756 12.7174 99.7453 11.4072C100.315 10.0686 101.098 9.11441 102.095 8.54476C103.12 7.97511 104.302 7.69029 105.641 7.69029H109.273V12.8598H104.402C103.092 12.8598 102.095 13.2016 101.412 13.8852C100.728 14.5403 100.386 15.523 100.386 16.8331V31.1883H94.4476Z" fill="#105044"/>
<path d="M111.43 31.1883V7.98935H115.959V16.705H115.873C115.873 14.4833 116.158 12.7174 116.728 11.4072C117.298 10.0686 118.081 9.11441 119.078 8.54476C120.103 7.97511 121.285 7.69029 122.624 7.69029H126.255V12.8598H121.385C120.075 12.8598 119.078 13.2016 118.394 13.8852C117.711 14.5403 117.369 15.523 117.369 16.8331V31.1883H111.43Z" fill="#105044"/>
<path fill-rule="evenodd" clip-rule="evenodd" d="M80.0447 32C78.0509 32 76.2993 31.6583 74.7897 30.9747C73.3086 30.2911 72.0696 29.3797 71.0727 28.2404C70.1043 27.0726 69.3638 25.7766 68.8511 24.3525C68.3669 22.9284 68.1248 21.4758 68.1248 19.9947V19.1829C68.1248 17.6449 68.3669 16.1638 68.8511 14.7397C69.3638 13.2871 70.1043 12.0054 71.0727 10.8946C72.0696 9.75526 73.2944 8.85806 74.747 8.20297C76.1996 7.51939 77.88 7.1776 79.7884 7.1776C82.2948 7.1776 84.3883 7.73301 86.0687 8.84383C87.7777 9.92616 89.0594 11.3645 89.9139 13.1589C90.7683 14.9248 91.1956 16.8331 91.1956 18.8839V21.0201H73.7559C73.8575 21.9152 74.0597 22.7412 74.3625 23.498C74.8182 24.6089 75.516 25.4918 76.4559 26.1469C77.3958 26.7735 78.5921 27.0868 80.0447 27.0868C81.4973 27.0868 82.6793 26.802 83.5908 26.2323C84.5022 25.6342 85.0861 24.9079 85.3424 24.0534H90.8111C90.4693 25.6485 89.8142 27.0441 88.8458 28.2404C87.8774 29.4366 86.6384 30.3623 85.1288 31.0174C83.6477 31.6725 81.953 32 80.0447 32ZM83.0354 12.9453C83.9183 13.5149 84.5734 14.3267 85.0006 15.3805C85.2439 15.9806 85.4179 16.65 85.5227 17.3886H73.8571C73.971 16.7359 74.1394 16.1377 74.3625 15.5942C74.8467 14.4549 75.5445 13.5862 76.4559 12.988C77.3673 12.3899 78.4782 12.0908 79.7884 12.0908C81.0985 12.0908 82.1809 12.3756 83.0354 12.9453Z" fill="#105044"/>
<path d="M59.9255 31.7864C57.59 31.7864 55.7244 31.1171 54.3287 29.7784C52.9616 28.4397 52.278 26.5314 52.278 24.0534V12.3472H48.6465V7.98935H52.278V1.28174H57.8321V7.98935H66.3341V12.3472H57.8321V24.2243C57.8321 25.1643 58.0599 25.8763 58.5156 26.3605C58.9999 26.8162 59.598 27.0441 60.31 27.0441C61.0506 27.0441 61.6487 26.8162 62.1044 26.3605C62.5602 25.8763 62.788 25.1643 62.788 24.2243H67.1885C67.1885 26.5314 66.5762 28.3685 65.3514 29.7357C64.1552 31.1028 62.3465 31.7864 59.9255 31.7864Z" fill="#105044"/>
<path fill-rule="evenodd" clip-rule="evenodd" d="M141.236 16.6623C141.236 15.3236 140.908 14.3267 140.253 13.6716C139.598 13.0165 138.587 12.689 137.22 12.689C136.508 12.689 135.653 12.7032 134.657 12.7317C133.66 12.7602 132.649 12.8029 131.623 12.8598C130.626 12.8883 129.729 12.9311 128.932 12.988V7.94663C129.587 7.88966 130.327 7.8327 131.153 7.77573C131.979 7.71877 132.819 7.69029 133.674 7.69029C134.557 7.6618 135.383 7.64756 136.152 7.64756C138.544 7.64756 140.524 7.96087 142.09 8.58748C143.685 9.2141 144.882 10.1967 145.679 11.5354C146.505 12.8741 146.918 14.6258 146.918 16.7904V31.1883H142.219V26.7206C142.028 27.3214 141.786 27.8707 141.492 28.3685C140.866 29.4793 139.983 30.3338 138.843 30.9319C137.733 31.5016 136.365 31.7864 134.742 31.7864C133.062 31.7864 131.58 31.4874 130.299 30.8892C129.045 30.2911 128.063 29.4366 127.351 28.3258C126.667 27.215 126.325 25.8763 126.325 24.3098C126.325 22.6008 126.738 21.2052 127.564 20.1229C128.419 19.0405 129.601 18.2288 131.11 17.6876C132.649 17.1465 134.443 16.8759 136.494 16.8759H141.236V16.6623ZM133.247 21.4473C133.987 20.7637 135.041 20.4219 136.408 20.4219H141.236V22.6008C141.179 23.8541 140.908 24.8509 140.424 25.5915C139.968 26.3036 139.385 26.8162 138.673 27.1295C137.989 27.4144 137.234 27.5568 136.408 27.5568C135.041 27.5568 133.987 27.2292 133.247 26.5741C132.535 25.919 132.179 25.0646 132.179 24.0107C132.179 22.9569 132.535 22.1024 133.247 21.4473Z" fill="#105044"/>
<path fill-rule="evenodd" clip-rule="evenodd" d="M163.054 9.10563C164.332 7.82838 166.159 6.88927 168.276 6.22043C170.384 5.55466 172.699 5.18153 174.872 4.98464C177.039 4.78815 179.034 4.7698 180.488 4.801C181.001 4.81201 181.445 4.82915 181.804 4.84665C181.826 5.2241 181.849 5.69501 181.867 6.24072C181.917 7.74097 181.929 9.79679 181.78 12.0251C181.631 14.2583 181.321 16.634 180.74 18.7851C180.155 20.9516 179.319 22.7913 178.181 24.043C175.366 27.1407 171.702 27.1818 166.879 26.6503C166.22 26.5777 165.627 27.053 165.555 27.7118C165.482 28.3707 165.957 28.9637 166.616 29.0363C171.419 29.5656 176.26 29.7266 179.958 25.6574C181.459 24.0058 182.425 21.752 183.057 19.4114C183.694 17.0552 184.02 14.5101 184.175 12.1853C184.331 9.85575 184.318 7.71655 184.266 6.16125C184.241 5.38262 184.205 4.74789 184.176 4.30588C184.161 4.08482 184.148 3.9118 184.139 3.79291C184.134 3.73347 184.13 3.68754 184.127 3.65589L184.124 3.61922L184.123 3.60909L184.123 3.60611L184.123 3.60514C184.123 3.60481 184.123 3.60453 182.928 3.71519L184.123 3.60453C184.069 3.02731 183.611 2.57078 183.033 2.51964L182.928 3.71519C183.033 2.51964 183.033 2.51962 183.033 2.51958L183.032 2.5195L183.029 2.51923L183.019 2.51836L182.982 2.51535C182.951 2.51281 182.906 2.50925 182.848 2.50492C182.732 2.49628 182.563 2.48458 182.348 2.47191C181.917 2.4466 181.298 2.4174 180.539 2.40111C179.023 2.36857 176.935 2.38729 174.655 2.59399C172.379 2.80028 169.88 3.19646 167.553 3.93146C165.236 4.6634 163.009 5.75651 161.357 7.40827C159.185 9.58022 158.201 11.8207 158 14.2151C157.805 16.5433 158.362 18.9282 159.066 21.3639C159.25 22.0007 159.915 22.3677 160.552 22.1837C161.189 21.9996 161.556 21.3342 161.372 20.6974C160.674 18.2832 160.237 16.2683 160.392 14.4156C160.542 12.6292 161.252 10.9078 163.054 9.10563ZM177 9.66513C177.151 9.0196 176.749 8.37419 176.104 8.22357C175.458 8.07295 174.813 8.47415 174.662 9.11967C174.043 11.7739 171.849 14.9189 168.99 18.0031C168.698 18.3181 168.4 18.631 168.098 18.9412L167.66 13.553C167.606 12.8923 167.027 12.4003 166.366 12.454C165.706 12.5078 165.214 13.0869 165.267 13.7476L165.867 21.1191C163.028 23.7615 160.119 26.0258 158.112 27.4269C157.569 27.8063 157.436 28.5545 157.815 29.0981C158.195 29.6416 158.943 29.7746 159.486 29.3952C161.681 27.8634 164.872 25.3691 167.935 22.4701C168.802 21.6503 169.66 20.7962 170.484 19.9202L177.486 18.5173C178.136 18.3871 178.557 17.7546 178.427 17.1047C178.297 16.4548 177.665 16.0334 177.015 16.1636L173.053 16.9574C174.941 14.565 176.442 12.0542 177 9.66513Z" fill="#105044"/>
</svg>
