<svg width="184" height="32" viewBox="0 0 184 32" fill="none" xmlns="http://www.w3.org/2000/svg">
<path fill-rule="evenodd" clip-rule="evenodd" d="M42.5354 16.3632C42.5354 14.6827 42.0939 13.401 41.211 12.518C40.328 11.6066 38.9608 11.1509 37.1095 11.1509C36.255 11.1509 35.3863 11.1651 34.5033 11.1936C33.6489 11.2221 32.8229 11.2648 32.0254 11.3218C31.2563 11.3502 30.5728 11.393 29.9746 11.4499V8.63018C30.6013 8.57321 31.2421 8.51625 31.8972 8.45928C32.5523 8.40232 33.2216 8.37383 33.9052 8.37383C34.6173 8.34535 35.3009 8.33111 35.956 8.33111C38.263 8.33111 40.1144 8.61593 41.51 9.18558C42.9341 9.75523 43.9738 10.6524 44.6289 11.8772C45.284 13.0734 45.6115 14.6685 45.6115 16.6622V31.1883H43.0481V26.6457C42.8534 27.2928 42.597 27.8813 42.2791 28.4112C41.5955 29.522 40.6698 30.3623 39.502 30.9319C38.3342 31.5016 36.9671 31.7864 35.4005 31.7864C33.8055 31.7864 32.3956 31.5016 31.1709 30.9319C29.9462 30.3623 28.992 29.5363 28.3084 28.4539C27.6533 27.3716 27.3258 26.0614 27.3258 24.5234C27.3258 23.0138 27.6676 21.7321 28.3511 20.6782C29.0632 19.6244 30.0743 18.8269 31.3845 18.2857C32.7232 17.7161 34.3325 17.4312 36.2123 17.4312H42.5354V16.3632ZM31.8545 21.1909C32.8229 20.308 34.2043 19.8665 35.9987 19.8665H42.5354V22.8572C42.4784 24.4806 42.1224 25.7624 41.4673 26.7023C40.8122 27.6137 40.0005 28.2688 39.0321 28.6676C38.0636 29.0378 37.0525 29.223 35.9987 29.223C34.2897 29.223 32.9368 28.81 31.9399 27.984C30.943 27.1295 30.4446 25.9902 30.4446 24.5661C30.4446 23.1705 30.9146 22.0454 31.8545 21.1909Z" fill="#769F56"/>
<path fill-rule="evenodd" clip-rule="evenodd" d="M11.0654 31.9146C9.41344 31.9146 7.90387 31.6155 6.53672 31.0174C5.19804 30.3908 4.03026 29.5363 3.03338 28.4539C2.06498 27.3431 1.31019 26.0899 0.769026 24.6943C0.256342 23.2701 0 21.7606 0 20.1656V19.5674C0 18.0294 0.256342 16.5625 0.769026 15.1669C1.28171 13.7428 2.00801 12.4895 2.94793 11.4072C3.91633 10.2964 5.06987 9.42768 6.40855 8.80107C7.7757 8.14597 9.29951 7.81843 10.98 7.81843C12.8883 7.81843 14.5688 8.23142 16.0214 9.05741C17.474 9.8834 18.6418 11.0797 19.5247 12.6462V0H22.729V31.1883H20.1656V26.2049C20.0236 26.5254 19.8669 26.8336 19.6956 27.1295C18.7842 28.7245 17.5737 29.9208 16.0641 30.7183C14.583 31.5158 12.9168 31.9146 11.0654 31.9146ZM15.6369 28.0694C14.4121 28.753 13.0307 29.0948 11.4927 29.0948C9.84068 29.0948 8.38808 28.7103 7.13485 27.9413C5.88162 27.1438 4.91322 26.0472 4.22964 24.6515C3.54606 23.2559 3.20427 21.6609 3.20427 19.8665C3.20427 18.1291 3.53182 16.5625 4.18692 15.1669C4.8705 13.7713 5.82466 12.6747 7.0494 11.8772C8.30263 11.0512 9.76947 10.6382 11.4499 10.6382C13.0165 10.6382 14.4121 10.98 15.6369 11.6636C16.8901 12.3471 17.8727 13.3013 18.5848 14.526C19.2968 15.7223 19.6529 17.1179 19.6529 18.713V20.7637C19.6529 22.4157 19.2968 23.8825 18.5848 25.1642C17.8727 26.4175 16.8901 27.3859 15.6369 28.0694Z" fill="#769F56"/>
<path d="M93.9476 31.1883V7.98932H98.4763V16.7049H98.3909C98.3909 14.4833 98.6757 12.7174 99.2454 11.4072C99.815 10.0685 100.598 9.11438 101.595 8.54473C102.621 7.97508 103.803 7.69026 105.141 7.69026H108.773V12.8598H103.902C102.592 12.8598 101.595 13.2016 100.912 13.8852C100.228 14.5403 99.8862 15.5229 99.8862 16.8331V31.1883H93.9476Z" fill="white"/>
<path d="M110.93 31.1883V7.98932H115.459V16.7049H115.374C115.374 14.4833 115.658 12.7174 116.228 11.4072C116.798 10.0685 117.581 9.11438 118.578 8.54473C119.603 7.97508 120.785 7.69026 122.124 7.69026H125.755V12.8598H120.885C119.575 12.8598 118.578 13.2016 117.894 13.8852C117.211 14.5403 116.869 15.5229 116.869 16.8331V31.1883H110.93Z" fill="white"/>
<path fill-rule="evenodd" clip-rule="evenodd" d="M79.5448 32C77.551 32 75.7993 31.6582 74.2897 30.9746C72.8087 30.2911 71.5697 29.3796 70.5728 28.2403C69.6044 27.0725 68.8638 25.7766 68.3512 24.3525C67.867 22.9284 67.6249 21.4758 67.6249 19.9947V19.1829C67.6249 17.6449 67.867 16.1638 68.3512 14.7397C68.8638 13.2871 69.6044 12.0053 70.5728 10.8945C71.5697 9.75523 72.7944 8.85803 74.247 8.20294C75.6996 7.51936 77.3801 7.17757 79.2884 7.17757C81.7949 7.17757 83.8883 7.73298 85.5688 8.84379C87.2777 9.92613 88.5594 11.3645 89.4139 13.1589C90.2684 14.9248 90.6956 16.8331 90.6956 18.8839V21.02H73.256C73.3576 21.9152 73.5598 22.7411 73.8625 23.498C74.3182 24.6088 75.0161 25.4918 75.956 26.1469C76.8959 26.7735 78.0922 27.0868 79.5448 27.0868C80.9974 27.0868 82.1794 26.802 83.0908 26.2323C84.0023 25.6342 84.5861 24.9079 84.8425 24.0534H90.3111C89.9693 25.6484 89.3142 27.0441 88.3458 28.2403C87.3774 29.4366 86.1384 30.3623 84.6289 31.0174C83.1478 31.6725 81.4531 32 79.5448 32ZM82.5354 12.9453C83.4184 13.5149 84.0735 14.3267 84.5007 15.3805C84.744 15.9806 84.918 16.6499 85.0227 17.3885H73.3572C73.4711 16.7358 73.6395 16.1377 73.8625 15.5941C74.3467 14.4548 75.0445 13.5861 75.956 12.988C76.8674 12.3899 77.9782 12.0908 79.2884 12.0908C80.5986 12.0908 81.6809 12.3756 82.5354 12.9453Z" fill="white"/>
<path d="M59.4256 31.7864C57.09 31.7864 55.2244 31.1171 53.8288 29.7784C52.4616 28.4397 51.7781 26.5314 51.7781 24.0534V12.3471H48.1465V7.98932H51.7781V1.28171H57.3321V7.98932H65.8341V12.3471H57.3321V24.2243C57.3321 25.1642 57.56 25.8763 58.0157 26.3605C58.4999 26.8162 59.098 27.0441 59.8101 27.0441C60.5506 27.0441 61.1488 26.8162 61.6045 26.3605C62.0602 25.8763 62.2881 25.1642 62.2881 24.2243H66.6886C66.6886 26.5314 66.0762 28.3685 64.8515 29.7357C63.6552 31.1028 61.8466 31.7864 59.4256 31.7864Z" fill="white"/>
<path fill-rule="evenodd" clip-rule="evenodd" d="M140.736 16.6622C140.736 15.3235 140.408 14.3267 139.753 13.6716C139.098 13.0165 138.087 12.6889 136.72 12.6889C136.008 12.6889 135.153 12.7032 134.157 12.7316C133.16 12.7601 132.149 12.8029 131.123 12.8598C130.126 12.8883 129.229 12.931 128.432 12.988V7.9466C129.087 7.88963 129.827 7.83267 130.653 7.7757C131.479 7.71874 132.319 7.69026 133.174 7.69026C134.057 7.66177 134.883 7.64753 135.652 7.64753C138.044 7.64753 140.024 7.96084 141.59 8.58745C143.186 9.21407 144.382 10.1967 145.179 11.5354C146.005 12.8741 146.418 14.6257 146.418 16.7904V31.1883H141.719V26.7206C141.528 27.3214 141.286 27.8707 140.992 28.3685C140.366 29.4793 139.483 30.3338 138.343 30.9319C137.233 31.5016 135.866 31.7864 134.242 31.7864C132.562 31.7864 131.08 31.4873 129.799 30.8892C128.546 30.2911 127.563 29.4366 126.851 28.3258C126.167 27.215 125.825 25.8763 125.825 24.3098C125.825 22.6008 126.238 21.2052 127.064 20.1228C127.919 19.0405 129.101 18.2288 130.611 17.6876C132.149 17.1464 133.943 16.8758 135.994 16.8758H140.736V16.6622ZM132.747 21.4473C133.487 20.7637 134.541 20.4219 135.908 20.4219H140.736V22.6008C140.679 23.854 140.408 24.8509 139.924 25.5915C139.469 26.3035 138.885 26.8162 138.173 27.1295C137.489 27.4143 136.734 27.5568 135.908 27.5568C134.541 27.5568 133.487 27.2292 132.747 26.5741C132.035 25.919 131.679 25.0645 131.679 24.0107C131.679 22.9568 132.035 22.1024 132.747 21.4473Z" fill="white"/>
<path fill-rule="evenodd" clip-rule="evenodd" d="M162.555 9.10572C163.832 7.82848 165.659 6.88936 167.776 6.22052C169.884 5.55476 172.2 5.18162 174.372 4.98473C176.54 4.78824 178.534 4.7699 179.988 4.80109C180.501 4.8121 180.945 4.82924 181.304 4.84674C181.326 5.22419 181.349 5.6951 181.367 6.24081C181.417 7.74106 181.429 9.79689 181.28 12.0252C181.131 14.2584 180.822 16.6341 180.24 18.7852C179.655 20.9517 178.819 22.7914 177.682 24.0431C174.866 27.1407 171.202 27.1818 166.379 26.6504C165.72 26.5778 165.127 27.053 165.055 27.7119C164.982 28.3708 165.457 28.9638 166.116 29.0364C170.919 29.5657 175.76 29.7267 179.458 25.6575C180.959 24.0059 181.925 21.7521 182.557 19.4114C183.194 17.0553 183.52 14.5102 183.675 12.1854C183.831 9.85584 183.818 7.71664 183.766 6.16135C183.741 5.38271 183.705 4.74798 183.676 4.30597C183.661 4.08491 183.648 3.91189 183.639 3.79301C183.634 3.73356 183.63 3.68763 183.627 3.65598L183.624 3.61931L183.623 3.60918L183.623 3.6062L183.623 3.60524C183.623 3.6049 183.623 3.60462 182.428 3.71528L183.623 3.60462C183.569 3.0274 183.111 2.57087 182.533 2.51973L182.428 3.71528C182.533 2.51973 182.533 2.51971 182.533 2.51968L182.532 2.51959L182.529 2.51932L182.519 2.51845L182.482 2.51544C182.451 2.5129 182.406 2.50934 182.348 2.50502C182.232 2.49637 182.063 2.48467 181.848 2.47201C181.417 2.44669 180.798 2.41749 180.039 2.4012C178.523 2.36866 176.436 2.38738 174.155 2.59408C171.879 2.80037 169.38 3.19655 167.053 3.93156C164.736 4.66349 162.509 5.7566 160.857 7.40836C158.685 9.58031 157.701 11.8208 157.5 14.2152C157.305 16.5434 157.862 18.9283 158.566 21.364C158.75 22.0008 159.415 22.3678 160.052 22.1838C160.689 21.9997 161.056 21.3343 160.872 20.6975C160.174 18.2833 159.737 16.2684 159.892 14.4157C160.042 12.6293 160.752 10.9078 162.555 9.10572ZM176.5 9.66522C176.651 9.01969 176.249 8.37429 175.604 8.22366C174.958 8.07304 174.313 8.47424 174.162 9.11976C173.543 11.774 171.35 14.919 168.49 18.0032C168.198 18.3182 167.9 18.6311 167.598 18.9413L167.16 13.5531C167.106 12.8924 166.527 12.4004 165.866 12.4541C165.206 12.5079 164.714 13.087 164.767 13.7477L165.367 21.1192C162.528 23.7616 159.619 26.0259 157.612 27.427C157.069 27.8064 156.936 28.5546 157.315 29.0982C157.695 29.6417 158.443 29.7747 158.987 29.3952C161.181 27.8635 164.372 25.3692 167.435 22.4702C168.302 21.6504 169.16 20.7962 169.984 19.9203L176.986 18.5174C177.636 18.3872 178.057 17.7547 177.927 17.1048C177.797 16.4548 177.165 16.0335 176.515 16.1637L172.553 16.9575C174.441 14.5651 175.942 12.0543 176.5 9.66522Z" fill="white"/>
</svg>
